<svg xmlns="http://www.w3.org/2000/svg" viewBox="0 0 642 790" width="642" height="790">
  <path d="
    M 82 47
    L 561 47
    Q 621 47 621 107
    L 621 530
    Q 621 590 561 590
    L 321 590
    L 170 759
    L 149 590
    L 82 590
    Q 22 590 22 530
    L 22 107
    Q 22 47 82 47
    Z" fill="#4BAED8"/>

  <path d="
    M 285 140
    L 358 140
    Q 375 140 375 157
    L 375 290
    Q 375 305 386 320
    L 430 370
    L 321 535
    L 212 370
    L 256 320
    Q 268 305 268 290
    L 268 157
    Q 268 140 285 140
    Z" fill="#ffffff"/>

  <circle cx="321" cy="391" r="24" fill="#1B4F8A"/>
  <rect x="312" y="391" width="18" height="144" rx="9" fill="#1B4F8A"/>
</svg>
